{"scene":0,"scenes":[{"nodes":[0]}],"asset":{"version":"2.0","generator":"https://github.com/mikedh/trimesh"},"accessors":[{"componentType":5125,"type":"SCALAR","bufferView":0,"count":960,"max":[161],"min":[0]},{"componentType":5126,"type":"VEC3","byteOffset":0,"bufferView":1,"count":162,"max":[-0.3710004985332489,-0.7181615233421326,0.15161339938640594],"min":[-0.5710004568099976,-0.9181615114212036,-0.048386599868535995]},{"componentType":5121,"normalized":true,"type":"VEC4","byteOffset":0,"bufferView":2,"count":162,"max":[255,0,0,255],"min":[255,0,0,255]},{"componentType":5125,"type":"SCALAR","bufferView":3,"count":36,"max":[7],"min":[0]},{"componentType":5126,"type":"VEC3","byteOffset":0,"bufferView":4,"count":8,"max":[-0.7675060033798218,0.9475832581520081,-0.6339177489280701],"min":[-1.007506012916565,0.7075833082199097,-0.8739177584648132]},{"componentType":5121,"normalized":true,"type":"VEC4","byteOffset":0,"bufferView":5,"count":8,"max":[0,0,255,255],"min":[0,0,255,255]},{"componentType":5125,"type":"SCALAR","bufferView":6,"count":384,"max":[65],"min":[0]},{"componentType":5126,"type":"VEC3","byteOffset":0,"bufferView":7,"count":66,"max":[-0.23961976170539856,-0.6124193072319031,-0.25404804944992065],"min":[-0.5196197628974915,-0.8924193382263184,-0.6740480661392212]},{"componentType":5121,"normalized":true,"type":"VEC4","byteOffset":0,"bufferView":8,"count":66,"max":[0,0,255,255],"min":[0,0,255,255]},{"componentType":5126,"type":"VEC3","byteOffset":0,"bufferView":9,"count":162,"max":[0.8999530076980591,-0.6347821354866028,0.4393547475337982],"min":[0.5799530148506165,-0.9547821283340454,0.11935475468635559]},{"componentType":5126,"type":"VEC3","byteOffset":0,"bufferView":10,"count":8,"max":[0.28066423535346985,-0.5894162058830261,-0.19421948492527008],"min":[-0.07933574914932251,-0.9494162201881409,-0.5542194843292236]},{"componentType":5126,"type":"VEC3","byteOffset":0,"bufferView":11,"count":66,"max":[0.7622695565223694,-0.3195793330669403,0.25139379501342773],"min":[0.5622695684432983,-0.5195793509483337,-0.04860619455575943]},{"componentType":5121,"normalized":true,"type":"VEC4","byteOffset":0,"bufferView":12,"count":66,"max":[255,0,0,255],"min":[255,0,0,255]},{"componentType":5126,"type":"VEC3","byteOffset":0,"bufferView":13,"count":162,"max":[0.35631197690963745,0.23286692798137665,-0.5929734706878662],"min":[0.11631196737289429,-0.007133076433092356,-0.8329734802246094]},{"componentType":5121,"normalized":true,"type":"VEC4","byteOffset":0,"bufferView":14,"count":162,"max":[0,0,255,255],"min":[0,0,255,255]},{"componentType":5126,"type":"VEC3","byteOffset":0,"bufferView":15,"count":8,"max":[0.860988974571228,0.36364084482192993,-0.6749030947685242],"min":[0.5809889435768127,0.08364084362983704,-0.9549030661582947]},{"componentType":5126,"type":"VEC3","byteOffset":0,"bufferView":16,"count":66,"max":[-0.07613082975149155,-0.48880448937416077,-0.0008350227144546807],"min":[-0.39613083004951477,-0.808804452419281,-0.4808350205421448]},{"componentType":5126,"type":"VEC3","byteOffset":0,"bufferView":17,"count":162,"max":[0.7285131216049194,0.9601633548736572,0.48637908697128296],"min":[0.3685131072998047,0.6001633405685425,0.1263791024684906]}],"meshes":[{"name":"geometry_0","extras":{"shape":"sphere","radius":0.1},"primitives":[{"attributes":{"POSITION":1,"COLOR_0":2},"indices":0,"mode":4}]},{"name":"geometry_1","extras":{"shape":"box","extents":[0.24000000000000002,0.24000000000000002,0.24000000000000002]},"primitives":[{"attributes":{"POSITION":4,"COLOR_0":5},"indices":3,"mode":4}]},{"name":"geometry_2","extras":{"shape":"cylinder","height":0.42000000000000004,"radius":0.14,"processed":true},"primitives":[{"attributes":{"POSITION":7,"COLOR_0":8},"indices":6,"mode":4}]},{"name":"geometry_3","extras":{"shape":"sphere","radius":0.16},"primitives":[{"attributes":{"POSITION":9,"COLOR_0":2},"indices":0,"mode":4}]},{"name":"geometry_4","extras":{"shape":"box","extents":[0.36,0.36,0.36]},"primitives":[{"attributes":{"POSITION":10,"COLOR_0":5},"indices":3,"mode":4}]},{"name":"geometry_5","extras":{"shape":"cylinder","height":0.30000000000000004,"radius":0.1,"processed":true},"primitives":[{"attributes":{"POSITION":11,"COLOR_0":12},"indices":6,"mode":4}]},{"name":"geometry_6","extras":{"shape":"sphere","radius":0.12000000000000001},"primitives":[{"attributes":{"POSITION":13,"COLOR_0":14},"indices":0,"mode":4}]},{"name":"geometry_7","extras":{"shape":"box","extents":[0.28,0.28,0.28]},"primitives":[{"attributes":{"POSITION":15,"COLOR_0":5},"indices":3,"mode":4}]},{"name":"geometry_8","extras":{"shape":"cylinder","height":0.48,"radius":0.16,"processed":true},"primitives":[{"attributes":{"POSITION":16,"COLOR_0":8},"indices":6,"mode":4}]},{"name":"geometry_9","extras":{"shape":"sphere","radius":0.18},"primitives":[{"attributes":{"POSITION":17,"COLOR_0":2},"indices":0,"mode":4}]}],"nodes":[{"name":"world","children":[1,2,3,4,5,6,7,8,9,10]},{"name":"geometry_0","mesh":0},{"name":"geometry_1","mesh":1},{"name":"geometry_2","mesh":2},{"name":"geometry_3","mesh":3},{"name":"geometry_4","mesh":4},{"name":"geometry_5","mesh":5},{"name":"geometry_6","mesh":6},{"name":"geometry_7","mesh":7},{"name":"geometry_8","mesh":8},{"name":"geometry_9","mesh":9}],"buffers":[{"uri":"gltf_buffer_0.bin","byteLength":3840},{"uri":"gltf_buffer_1.bin","byteLength":1944},{"uri":"gltf_buffer_2.bin","byteLength":648},{"uri":"gltf_buffer_3.bin","byteLength":144},{"uri":"gltf_buffer_4.bin","byteLength":96},{"uri":"gltf_buffer_5.bin","byteLength":32},{"uri":"gltf_buffer_6.bin","byteLength":1536},{"uri":"gltf_buffer_7.bin","byteLength":792},{"uri":"gltf_buffer_8.bin","byteLength":264},{"uri":"gltf_buffer_9.bin","byteLength":1944},{"uri":"gltf_buffer_10.bin","byteLength":96},{"uri":"gltf_buffer_11.bin","byteLength":792},{"uri":"gltf_buffer_12.bin","byteLength":264},{"uri":"gltf_buffer_13.bin","byteLength":1944},{"uri":"gltf_buffer_14.bin","byteLength":648},{"uri":"gltf_buffer_15.bin","byteLength":96},{"uri":"gltf_buffer_16.bin","byteLength":792},{"uri":"gltf_buffer_17.bin","byteLength":1944}],"bufferViews":[{"buffer":0,"byteOffset":0,"byteLength":3840},{"buffer":1,"byteOffset":0,"byteLength":1944},{"buffer":2,"byteOffset":0,"byteLength":648},{"buffer":3,"byteOffset":0,"byteLength":144},{"buffer":4,"byteOffset":0,"byteLength":96},{"buffer":5,"byteOffset":0,"byteLength":32},{"buffer":6,"byteOffset":0,"byteLength":1536},{"buffer":7,"byteOffset":0,"byteLength":792},{"buffer":8,"byteOffset":0,"byteLength":264},{"buffer":9,"byteOffset":0,"byteLength":1944},{"buffer":10,"byteOffset":0,"byteLength":96},{"buffer":11,"byteOffset":0,"byteLength":792},{"buffer":12,"byteOffset":0,"byteLength":264},{"buffer":13,"byteOffset":0,"byteLength":1944},{"buffer":14,"byteOffset":0,"byteLength":648},{"buffer":15,"byteOffset":0,"byteLength":96},{"buffer":16,"byteOffset":0,"byteLength":792},{"buffer":17,"byteOffset":0,"byteLength":1944}]}