{"scene":0,"scenes":[{"nodes":[0]}],"asset":{"version":"2.0","generator":"https://github.com/mikedh/trimesh"},"accessors":[{"componentType":5125,"type":"SCALAR","bufferView":0,"count":384,"max":[65],"min":[0]},{"componentType":5126,"type":"VEC3","byteOffset":0,"bufferView":1,"count":66,"max":[-0.07613082975149155,-0.48880448937416077,-0.0008350227144546807],"min":[-0.39613083004951477,-0.808804452419281,-0.4808350205421448]},{"componentType":5121,"normalized":true,"type":"VEC4","byteOffset":0,"bufferView":2,"count":66,"max":[0,0,255,255],"min":[0,0,255,255]}],"meshes":[{"name":"geometry_0","extras":{"shape":"cylinder","height":0.48,"radius":0.16,"processed":true},"primitives":[{"attributes":{"POSITION":1,"COLOR_0":2},"indices":0,"mode":4}]}],"nodes":[{"name":"world","children":[1]},{"name":"geometry_0","mesh":0}],"buffers":[{"uri":"gltf_buffer_0.bin","byteLength":1536},{"uri":"gltf_buffer_1.bin","byteLength":792},{"uri":"gltf_buffer_2.bin","byteLength":264}],"bufferViews":[{"buffer":0,"byteOffset":0,"byteLength":1536},{"buffer":1,"byteOffset":0,"byteLength":792},{"buffer":2,"byteOffset":0,"byteLength":264}]}