{"scene":0,"scenes":[{"nodes":[0]}],"asset":{"version":"2.0","generator":"https://github.com/mikedh/trimesh"},"accessors":[{"componentType":5125,"type":"SCALAR","bufferView":0,"count":960,"max":[161],"min":[0]},{"componentType":5126,"type":"VEC3","byteOffset":0,"bufferView":1,"count":162,"max":[0.7285131216049194,0.9601633548736572,0.48637908697128296],"min":[0.3685131072998047,0.6001633405685425,0.1263791024684906]},{"componentType":5121,"normalized":true,"type":"VEC4","byteOffset":0,"bufferView":2,"count":162,"max":[255,0,0,255],"min":[255,0,0,255]}],"meshes":[{"name":"geometry_0","extras":{"shape":"sphere","radius":0.18},"primitives":[{"attributes":{"POSITION":1,"COLOR_0":2},"indices":0,"mode":4}]}],"nodes":[{"name":"world","children":[1]},{"name":"geometry_0","mesh":0}],"buffers":[{"uri":"gltf_buffer_0.bin","byteLength":3840},{"uri":"gltf_buffer_1.bin","byteLength":1944},{"uri":"gltf_buffer_2.bin","byteLength":648}],"bufferViews":[{"buffer":0,"byteOffset":0,"byteLength":3840},{"buffer":1,"byteOffset":0,"byteLength":1944},{"buffer":2,"byteOffset":0,"byteLength":648}]}