{"scene":0,"scenes":[{"nodes":[0]}],"asset":{"version":"2.0","generator":"https://github.com/mikedh/trimesh"},"accessors":[{"componentType":5125,"type":"SCALAR","bufferView":0,"count":384,"max":[65],"min":[0]},{"componentType":5126,"type":"VEC3","byteOffset":0,"bufferView":1,"count":66,"max":[-0.23961976170539856,-0.6124193072319031,-0.25404804944992065],"min":[-0.5196197628974915,-0.8924193382263184,-0.6740480661392212]},{"componentType":5121,"normalized":true,"type":"VEC4","byteOffset":0,"bufferView":2,"count":66,"max":[0,0,255,255],"min":[0,0,255,255]}],"meshes":[{"name":"geometry_0","extras":{"shape":"cylinder","height":0.42000000000000004,"radius":0.14,"processed":true},"primitives":[{"attributes":{"POSITION":1,"COLOR_0":2},"indices":0,"mode":4}]}],"nodes":[{"name":"world","children":[1]},{"name":"geometry_0","mesh":0}],"buffers":[{"uri":"gltf_buffer_0.bin","byteLength":1536},{"uri":"gltf_buffer_1.bin","byteLength":792},{"uri":"gltf_buffer_2.bin","byteLength":264}],"bufferViews":[{"buffer":0,"byteOffset":0,"byteLength":1536},{"buffer":1,"byteOffset":0,"byteLength":792},{"buffer":2,"byteOffset":0,"byteLength":264}]}